<svg xmlns="http://www.w3.org/2000/svg" viewBox="0 0 48 50">
<g clip-path="url(#clip0_535_1178)">
<path d="M14.5423 24.5529C14.5336 22.8885 14.962 21.2514 15.7839 19.8074L7.14257 14.8055C6.85631 15.3146 6.70655 15.8899 6.70802 16.4749V32.6372C6.70786 33.2324 6.86422 33.817 7.16119 34.3316L15.8025 29.3297C14.9707 27.8776 14.5359 26.2294 14.5423 24.5529Z" fill="#1376A9"/>
<path d="M32.1603 19.8075L40.8017 14.8056C40.5072 14.2837 40.0782 13.8517 39.5601 13.5551L25.6545 5.45832C25.144 5.15811 24.5633 5.00055 23.9722 5.0019V15.0557C25.6313 15.0528 27.2619 15.4905 28.6994 16.3248C30.137 17.159 31.3308 18.3603 32.1603 19.8075Z" fill="#AEDAE7"/>
<path d="M23.9718 15.0557V5.0019C23.3806 5.00055 22.7999 5.15811 22.2894 5.45832L8.39001 13.5364C7.87319 13.8347 7.44463 14.2663 7.14844 14.7868L15.7898 19.7887C16.6212 18.346 17.815 17.149 19.2512 16.3182C20.6874 15.4874 22.3155 15.052 23.9718 15.0557Z" fill="#60B6D3"/>
<path d="M41.2361 16.4749C41.2362 15.8797 41.0799 15.2951 40.7829 14.7805L32.1602 19.8074C32.986 21.2518 33.4206 22.8893 33.4206 24.5561C33.4206 26.2228 32.986 27.8603 32.1602 29.3047L40.8015 34.3066C41.0985 33.792 41.2548 33.2074 41.2547 32.6122L41.2361 16.4749Z" fill="#1376A9"/>
<path d="M15.8025 29.3047L7.16113 34.3066C7.45898 34.8259 7.88716 35.2571 8.40271 35.5571L22.2897 43.6539C22.8014 43.9511 23.3814 44.1084 23.972 44.1103V34.0565C22.3161 34.0561 20.6893 33.6168 19.2553 32.7827C17.8213 31.9486 16.6305 30.7491 15.8025 29.3047Z" fill="#329BC2"/>
<path d="M23.9722 34.0565V44.1103C24.5629 44.1084 25.1428 43.9511 25.6545 43.6539L39.5539 35.5759C40.0707 35.2775 40.4993 34.8459 40.7955 34.3254L32.1603 29.3047C31.3308 30.7519 30.137 31.9532 28.6994 32.7874C27.2619 33.6217 25.6313 34.0594 23.9722 34.0565Z" fill="#13487D"/>
</g>
<defs>
<clipPath id="clip0_535_1178">
<rect width="48" height="50" fill="white"/>
</clipPath>
</defs>
</svg>